# This file uses centimeters as units for non-parametric coordinates.

mtllib m_ground.mtl
g default
v -0.500000 -0.000000 0.500000
v -0.357143 -0.000000 0.500000
v -0.214286 -0.000000 0.500000
v -0.071429 -0.000000 0.500000
v 0.071429 -0.000000 0.500000
v 0.214286 -0.000000 0.500000
v 0.357143 -0.000000 0.500000
v 0.500000 -0.000000 0.500000
v -0.500000 -0.000000 0.357143
v -0.357143 0.017111 0.357143
v -0.214286 0.000163 0.357143
v -0.071429 0.015404 0.357143
v 0.071429 0.001086 0.357143
v 0.214286 0.012462 0.357143
v 0.357143 0.011501 0.357143
v 0.500000 -0.000000 0.357143
v -0.500000 -0.000000 0.214286
v -0.357143 0.013446 0.214286
v -0.214286 0.009979 0.214286
v -0.071429 0.012763 0.214286
v 0.071429 0.012763 0.214286
v 0.214286 0.001086 0.214286
v 0.357143 0.009254 0.214286
v 0.500000 -0.000000 0.214286
v -0.500000 -0.000000 0.071429
v -0.357143 -0.011038 0.071429
v -0.214286 0.000724 0.071429
v -0.071429 0.004839 0.071429
v 0.071429 0.001647 0.071429
v 0.214286 -0.007904 0.071429
v 0.357143 0.005695 0.071429
v 0.500000 -0.000000 0.071429
v -0.500000 0.000000 -0.071429
v -0.357143 0.000000 -0.071429
v -0.214286 0.004552 -0.071429
v -0.071429 0.002397 -0.071429
v 0.071429 -0.005047 -0.071429
v 0.214286 -0.007272 -0.071429
v 0.357143 -0.010809 -0.071429
v 0.500000 0.000000 -0.071429
v -0.500000 0.000000 -0.214286
v -0.357143 -0.008500 -0.214286
v -0.214286 -0.000230 -0.214286
v -0.071429 0.013134 -0.214286
v 0.071429 0.015938 -0.214286
v 0.214286 0.018019 -0.214286
v 0.357143 0.000000 -0.214286
v 0.500000 0.000000 -0.214286
v -0.500000 0.000000 -0.357143
v -0.357143 0.008626 -0.357143
v -0.214286 0.000790 -0.357143
v -0.071429 0.007420 -0.357143
v 0.071429 0.000057 -0.357143
v 0.214286 0.003934 -0.357143
v 0.357143 0.010979 -0.357143
v 0.500000 0.000000 -0.357143
v -0.500000 0.000000 -0.500000
v -0.357143 0.000000 -0.500000
v -0.214286 0.000000 -0.500000
v -0.071429 0.000000 -0.500000
v 0.071429 0.000000 -0.500000
v 0.214286 0.000000 -0.500000
v 0.357143 0.000000 -0.500000
v 0.500000 0.000000 -0.500000
vt 0.000000 0.000000
vt 0.142857 0.000000
vt 0.285714 0.000000
vt 0.428571 0.000000
vt 0.571429 0.000000
vt 0.714286 0.000000
vt 0.857143 0.000000
vt 1.000000 0.000000
vt 0.000000 0.142857
vt 0.142857 0.142857
vt 0.285714 0.142857
vt 0.428571 0.142857
vt 0.571429 0.142857
vt 0.714286 0.142857
vt 0.857143 0.142857
vt 1.000000 0.142857
vt 0.000000 0.285714
vt 0.142857 0.285714
vt 0.285714 0.285714
vt 0.428571 0.285714
vt 0.571429 0.285714
vt 0.714286 0.285714
vt 0.857143 0.285714
vt 1.000000 0.285714
vt 0.000000 0.428571
vt 0.142857 0.428571
vt 0.285714 0.428571
vt 0.428571 0.428571
vt 0.571429 0.428571
vt 0.714286 0.428571
vt 0.857143 0.428571
vt 1.000000 0.428571
vt 0.000000 0.571429
vt 0.142857 0.571429
vt 0.285714 0.571429
vt 0.428571 0.571429
vt 0.571429 0.571429
vt 0.714286 0.571429
vt 0.857143 0.571429
vt 1.000000 0.571429
vt 0.000000 0.714286
vt 0.142857 0.714286
vt 0.285714 0.714286
vt 0.428571 0.714286
vt 0.571429 0.714286
vt 0.714286 0.714286
vt 0.857143 0.714286
vt 1.000000 0.714286
vt 0.000000 0.857143
vt 0.142857 0.857143
vt 0.285714 0.857143
vt 0.428571 0.857143
vt 0.571429 0.857143
vt 0.714286 0.857143
vt 0.857143 0.857143
vt 1.000000 0.857143
vt 0.000000 1.000000
vt 0.142857 1.000000
vt 0.285714 1.000000
vt 0.428571 1.000000
vt 0.571429 1.000000
vt 0.714286 1.000000
vt 0.857143 1.000000
vt 1.000000 1.000000
vn -0.059674 0.996433 0.059674
vn -0.000285 0.998195 0.060065
vn -0.009041 0.999442 0.032146
vn -0.083107 0.996265 0.023443
vn 0.002981 0.998348 0.057378
vn 0.003571 0.999177 0.040405
vn -0.001612 0.998429 0.056013
vn -0.004047 0.999103 0.042156
vn 0.005141 0.998608 0.052493
vn 0.015324 0.999288 0.034471
vn -0.018184 0.997687 0.065492
vn -0.015141 0.999662 0.021149
vn 0.021762 0.997843 0.061928
vn 0.022719 0.999595 0.017124
vn 0.040187 0.998384 0.040187
vn 0.056350 0.998280 0.016167
vn -0.018257 0.998654 -0.048545
vn -0.057523 0.997135 -0.049119
vn -0.011194 0.999397 -0.032873
vn -0.006486 0.999826 -0.017495
vn 0.034123 0.999078 -0.026043
vn -0.006478 0.999168 -0.040260
vn 0.005899 0.999591 -0.027968
vn 0.062357 0.998002 -0.010139
vn -0.013959 0.999508 -0.028091
vn 0.015097 0.999609 -0.023522
vn -0.029273 0.999111 -0.030346
vn 0.004337 0.999251 -0.038458
vn 0.040932 0.998033 -0.047480
vn 0.001051 0.998861 -0.047699
vn -0.019207 0.998919 -0.042339
vn 0.017199 0.999236 -0.035083
vn -0.008428 0.999958 0.003610
vn 0.034172 0.999406 0.004438
vn -0.036989 0.999285 0.007806
vn 0.001864 0.999654 0.026224
vn 0.023752 0.998212 0.054847
vn 0.020502 0.998394 0.052805
vn -0.003834 0.999911 0.012786
vn -0.027853 0.999562 -0.009962
vn -0.004276 0.999922 0.011748
vn 0.014653 0.999779 0.015092
vn -0.038868 0.999230 0.005339
vn -0.019183 0.999766 0.009977
vn 0.002944 0.999728 0.023132
vn 0.023157 0.998811 0.042890
vn 0.028623 0.998434 0.048066
vn 0.000297 0.999274 0.038101
vn -0.001181 0.999886 0.015025
vn -0.015312 0.999772 0.014872
vn -0.016816 0.999852 -0.003651
vn -0.012873 0.999243 -0.036716
vn 0.001821 0.998483 -0.055024
vn -0.005206 0.998951 -0.045487
vn 0.022632 0.999619 -0.015771
vn 0.038397 0.999263 0.000000
vn -0.001382 0.999501 -0.031559
vn -0.030164 0.999090 -0.030164
vn 0.002110 0.999522 -0.030831
vn 0.001284 0.999623 -0.027440
vn 0.006098 0.999780 -0.020063
vn -0.019100 0.999271 -0.033057
vn 0.006878 0.998951 -0.045263
vn 0.038369 0.998527 -0.038369
s 1
g pPlane1
usemtl lambert3SG
f 1/1/1 2/2/2 10/10/3 9/9/4
f 2/2/2 3/3/5 11/11/6 10/10/3
f 3/3/5 4/4/7 12/12/8 11/11/6
f 4/4/7 5/5/9 13/13/10 12/12/8
f 5/5/9 6/6/11 14/14/12 13/13/10
f 6/6/11 7/7/13 15/15/14 14/14/12
f 7/7/13 8/8/15 16/16/16 15/15/14
f 9/9/4 10/10/3 18/18/17 17/17/18
f 10/10/3 11/11/6 19/19/19 18/18/17
f 11/11/6 12/12/8 20/20/20 19/19/19
f 12/12/8 13/13/10 21/21/21 20/20/20
f 13/13/10 14/14/12 22/22/22 21/21/21
f 14/14/12 15/15/14 23/23/23 22/22/22
f 15/15/14 16/16/16 24/24/24 23/23/23
f 17/17/18 18/18/17 26/26/25 25/25/26
f 18/18/17 19/19/19 27/27/27 26/26/25
f 19/19/19 20/20/20 28/28/28 27/27/27
f 20/20/20 21/21/21 29/29/29 28/28/28
f 21/21/21 22/22/22 30/30/30 29/29/29
f 22/22/22 23/23/23 31/31/31 30/30/30
f 23/23/23 24/24/24 32/32/32 31/31/31
f 25/25/26 26/26/25 34/34/33 33/33/34
f 26/26/25 27/27/27 35/35/35 34/34/33
f 27/27/27 28/28/28 36/36/36 35/35/35
f 28/28/28 29/29/29 37/37/37 36/36/36
f 29/29/29 30/30/30 38/38/38 37/37/37
f 30/30/30 31/31/31 39/39/39 38/38/38
f 31/31/31 32/32/32 40/40/40 39/39/39
f 33/33/34 34/34/33 42/42/41 41/41/42
f 34/34/33 35/35/35 43/43/43 42/42/41
f 35/35/35 36/36/36 44/44/44 43/43/43
f 36/36/36 37/37/37 45/45/45 44/44/44
f 37/37/37 38/38/38 46/46/46 45/45/45
f 38/38/38 39/39/39 47/47/47 46/46/46
f 39/39/39 40/40/40 48/48/48 47/47/47
f 41/41/42 42/42/41 50/50/49 49/49/50
f 42/42/41 43/43/43 51/51/51 50/50/49
f 43/43/43 44/44/44 52/52/52 51/51/51
f 44/44/44 45/45/45 53/53/53 52/52/52
f 45/45/45 46/46/46 54/54/54 53/53/53
f 46/46/46 47/47/47 55/55/55 54/54/54
f 47/47/47 48/48/48 56/56/56 55/55/55
f 49/49/50 50/50/49 58/58/57 57/57/58
f 50/50/49 51/51/51 59/59/59 58/58/57
f 51/51/51 52/52/52 60/60/60 59/59/59
f 52/52/52 53/53/53 61/61/61 60/60/60
f 53/53/53 54/54/54 62/62/62 61/61/61
f 54/54/54 55/55/55 63/63/63 62/62/62
f 55/55/55 56/56/56 64/64/64 63/63/63
