# This file uses centimeters as units for non-parametric coordinates.

mtllib rock2b_lp.mtl
g default
v 1.388049 -1.030314 -0.491544
v -1.435574 -0.978635 -0.304018
v 0.743294 0.920991 -0.515826
v 0.447660 -1.125628 -2.548311
v 0.546563 -2.596028 -0.364405
v -0.408855 0.544115 2.857795
v -0.762491 -1.724417 -1.940595
v 0.590030 1.088208 -1.766830
v 0.695943 -1.921236 1.440479
v -1.516130 0.877234 1.843233
v -1.009975 -0.438189 1.539915
v 0.712347 -2.108740 -1.243891
v 1.182575 -1.216222 0.793512
v -1.186747 -0.704623 0.098567
v -0.980811 1.832613 -0.991313
v -0.466565 0.832778 -2.105846
v -0.643038 -1.804551 -1.166044
v 1.419096 1.053485 1.019114
v 0.751664 0.562406 2.230710
v 0.135761 -2.299865 -2.320481
v 0.919427 1.664896 1.644091
v -0.876508 -1.763864 -0.374474
v -0.084996 2.097729 0.139829
v 0.171799 -1.973554 1.814006
v 0.545485 0.107860 -1.942552
v -0.081407 -0.875776 2.168111
v -1.227385 -1.390902 -1.136433
v 1.301470 0.408096 1.600222
v -0.907738 -0.641302 -1.416832
v 0.113114 -0.321076 2.392636
v 0.009702 -2.291318 1.237623
v 1.390470 0.313610 -0.608298
v -1.132361 -0.189297 0.757179
v 0.822613 -2.445375 0.144799
v -1.205471 1.629504 0.859117
v 0.632547 -2.375710 1.104496
v -0.127311 -1.698317 -2.694664
v -0.799319 1.762708 1.427576
v 0.878864 -0.557760 -2.104785
v -1.298350 -1.722180 -0.485322
v 1.012927 -0.265154 1.471595
v -0.497809 1.631190 -1.719511
v -0.396975 -2.187769 -0.677549
v 0.445767 1.938857 -1.173669
v -1.035894 -0.114782 1.981581
v 1.403566 0.254840 1.009704
v -0.524289 1.862744 0.235936
v -0.322224 -2.418178 0.926315
v -0.927792 0.816364 -1.965215
v 1.356645 -1.112214 0.350898
v -1.339813 0.872094 0.868443
v -0.388394 -2.278404 -2.213555
v -0.213336 1.768857 0.969918
v -0.813623 -1.707695 1.131779
v 0.382097 -2.400748 -1.675511
v 0.139626 1.750018 2.279574
v 0.018501 -1.375692 2.253591
v 0.943028 -1.677327 -1.188121
v -0.948380 -0.987702 -1.513052
v -0.117053 1.258288 2.775042
v 0.483413 2.148564 -0.765545
v 0.106185 -2.755259 -0.130470
v -1.196808 -1.511777 0.996457
v -0.182834 -0.592669 -2.513616
v -0.926938 0.684267 2.288215
v 0.050276 1.975322 0.499401
v -0.569727 -2.185919 -0.224502
v 0.945580 -1.227041 -2.015736
v 0.427409 1.940247 -0.089898
v -1.594211 -1.368389 0.220673
v 0.920105 -2.107512 0.967387
v 1.243865 -0.070263 -0.998440
v -0.261961 -2.461857 -1.526001
v -0.985130 1.738056 0.193865
v -0.582861 -1.308427 1.877483
v 0.338607 1.037353 2.888586
v 0.729773 0.415158 -1.063625
v -0.524298 -0.384325 -2.167058
v -0.122828 -2.375658 -0.973018
v -0.198790 -1.850530 1.966669
v 1.037014 1.189432 0.505975
v -1.155640 -0.105536 0.147419
v -0.695398 1.304427 2.136878
v -0.230215 -2.019537 1.454220
v 0.385294 -0.620235 -2.242852
v 0.814335 1.987742 -0.690187
v -0.746486 -2.129853 -1.854980
v -0.088066 1.918624 2.040800
v 1.018472 -1.055205 -0.920836
v 1.098542 -1.557372 1.533162
v -1.344555 -0.788638 0.722088
v -0.387274 -1.579106 -2.514282
v 1.285972 -1.297012 -0.306873
v -0.375256 -2.507902 -0.460588
v 0.640361 0.614983 -1.543280
v -0.426515 2.019980 -0.611777
v -0.239616 -2.691903 0.509097
v 0.756266 -1.208750 2.214799
v 0.919362 -2.119506 -0.815342
v -1.059383 1.483613 0.157569
v 0.274304 0.591007 -1.872214
v -0.758276 -1.971786 0.572515
v 0.573013 -1.744587 2.061623
v 1.168458 -0.741261 -1.004811
v -0.488742 0.018133 2.544469
v -0.967434 0.491006 -1.075311
v 0.798242 1.031861 2.089844
v 0.680941 1.183363 -0.027275
v -0.943313 1.390238 2.091646
v -1.115317 -1.826990 0.001104
v 0.711409 -1.384114 -2.282817
v 0.338255 2.015654 0.813338
v -0.827458 0.088954 -1.815369
v -0.611752 -0.746083 2.146988
v 1.578848 -0.789002 0.392187
v -0.435206 1.782352 2.090821
v 0.607503 -0.803168 2.179845
v 0.298111 -1.705321 -2.585600
v -0.898488 -0.794404 1.667014
v -1.112389 -1.212573 -1.502157
v 0.423312 1.680465 0.288434
v 0.228839 -2.838511 0.484024
v 0.261338 0.717867 2.952605
v -1.362802 1.127965 0.716290
v 1.482859 -0.281310 0.535147
v -1.428338 -1.663400 0.392590
v -0.554903 0.425456 -2.176773
v 1.069525 -0.762264 0.985969
v -0.426635 1.337319 2.438752
v -1.448838 -1.055489 0.875286
v 0.969289 -0.218117 -1.532709
v -0.748113 2.008871 -0.685286
v 0.182964 -2.530417 1.149154
v -0.490008 0.904499 2.407613
v 1.042939 -0.768542 1.550584
v 1.545281 -0.957368 -0.048029
v -0.997742 1.105508 -0.050088
v 0.295278 -1.209849 2.224989
v 0.485932 1.525639 -1.564735
v -1.487531 -1.504789 -0.437154
v 1.286336 1.095836 0.598030
v -1.155423 1.649856 1.300379
v 0.985393 -1.268563 -1.308958
v -0.749161 -0.530675 2.277633
v 0.511460 1.481463 2.212415
v 1.459118 0.438039 -0.153771
v -0.855367 1.128533 -1.911300
v -1.446406 1.290930 1.740909
v -1.603734 -1.043994 0.326213
vt 0.878127 0.265163
vt 0.702518 0.402564
vt 0.756379 0.245308
vt 0.816350 0.368230
vt 0.696152 0.250219
vt 0.854662 0.172822
vt 0.880442 0.452274
vt 0.775931 0.442630
vt 0.667694 0.412237
vt 0.747958 0.184008
vt 0.916139 0.244287
vt 0.951224 0.359786
vt 0.849059 0.457694
vt 0.728352 0.477985
vt 0.593631 0.455219
vt 0.668605 0.290691
vt 0.687706 0.187535
vt 0.855178 0.074825
vt 0.880385 0.188118
vt 0.930975 0.432993
vt 0.809760 0.478962
vt 0.608239 0.512892
vt 0.645087 0.411142
vt 0.662035 0.227333
vt 0.722937 0.105318
vt 0.930805 0.173760
vt 0.941718 0.240638
vt 0.707407 0.512825
vt 0.552872 0.446612
vt 0.629423 0.237943
vt 0.615710 0.304076
vt 0.660879 0.172134
vt 0.755450 0.060917
vt 0.968943 0.329021
vt 0.596255 0.531026
vt 0.537938 0.482660
vt 0.627159 0.374375
vt 0.687126 0.092541
vt 0.932851 0.129399
vt 0.835779 0.030090
vt 0.585575 0.377352
vt 0.599765 0.220660
vt 0.593856 0.308918
vt 0.615008 0.159953
vt 0.896768 0.085112
vt 0.713639 0.031154
vt 0.906751 0.049852
vt 0.547049 0.328243
vt 0.691984 0.044288
vt 0.768812 0.004329
vt 0.589665 0.297774
vt 0.519495 0.413539
vt 0.595312 0.146349
vt 0.547235 0.282697
vt 0.635451 0.071382
vt 0.583319 0.260017
vt 0.514866 0.306432
vt 0.580952 0.062416
vt 0.568762 0.202572
vt 0.528161 0.357947
vt 0.496368 0.208948
vt 0.628688 0.033571
vt 0.563962 0.113933
vt 0.523886 0.167004
vt 0.175539 0.297018
vt 0.041515 0.276299
vt 0.074275 0.179775
vt 0.165083 0.341515
vt 0.026369 0.225108
vt 0.156961 0.230892
vt 0.075480 0.358995
vt 0.210720 0.360863
vt 0.001992 0.310402
vt 0.183773 0.212326
vt 0.118728 0.142299
vt 0.130787 0.415873
vt 0.048518 0.372779
vt 0.210089 0.417624
vt 0.259071 0.315541
vt 0.181270 0.169169
vt 0.191106 0.256914
vt 0.075357 0.136692
vt 0.094207 0.406555
vt 0.260695 0.409684
vt 0.212832 0.160727
vt 0.280288 0.161367
vt 0.208032 0.301169
vt 0.159821 0.130151
vt 0.111966 0.469000
vt 0.165834 0.484399
vt 0.206608 0.480885
vt 0.312971 0.363249
vt 0.318879 0.200589
vt 0.331388 0.246283
vt 0.056143 0.028461
vt 0.255073 0.502277
vt 0.393260 0.364195
vt 0.328378 0.422615
vt 0.163995 0.059097
vt 0.265424 0.107657
vt 0.329088 0.154814
vt 0.046001 0.093301
vt 0.148205 0.032247
vt 0.343891 0.485998
vt 0.231279 0.050145
vt 0.397518 0.321863
vt 0.115913 0.001808
vt 0.359520 0.558572
vt 0.454726 0.427025
vt 0.391086 0.471837
vt 0.298195 0.066455
vt 0.174191 0.005557
vt 0.391638 0.552136
vt 0.489988 0.343508
vt 0.436285 0.484159
vt 0.349177 0.106594
vt 0.224998 0.036265
vt 0.406927 0.312608
vt 0.346766 0.073526
vt 0.379940 0.209885
vt 0.463283 0.490911
vt 0.456291 0.290739
vt 0.396751 0.084120
vt 0.406317 0.259000
vt 0.487182 0.192357
vt 0.482407 0.252704
vt 0.440726 0.104437
vt 0.485933 0.311948
vt 0.482268 0.143751
vt 0.342661 0.557861
vt 0.374160 0.610739
vt 0.328903 0.646968
vt 0.332033 0.690480
vt 0.365841 0.682535
vt 0.301685 0.687174
vt 0.297055 0.735220
vt 0.177247 0.568728
vt 0.184381 0.503271
vt 0.195648 0.617629
vt 0.219655 0.579872
vt 0.164179 0.656986
vt 0.243126 0.500294
vt 0.231541 0.675074
vt 0.225977 0.731297
vt 0.297038 0.696405
vt 0.230617 0.742180
vt 0.261505 0.584386
vt 0.286569 0.575131
vt 0.299916 0.532799
vt 0.789420 0.602226
vt 0.825220 0.589438
vt 0.852869 0.709236
vt 0.861825 0.522761
vt 0.884130 0.635447
vt 0.806540 0.713465
vt 0.810744 0.522678
vt 0.910631 0.682749
vt 0.862699 0.794457
vt 0.784389 0.646586
vt 0.760167 0.557939
vt 0.896723 0.527790
vt 0.897032 0.718897
vt 0.939582 0.651189
vt 0.830368 0.801847
vt 0.919613 0.503786
vt 0.948545 0.741992
vt 0.948133 0.703958
vt 0.855531 0.905819
vt 0.954175 0.809916
vt 0.862686 0.487783
vt 0.950390 0.850945
vt 0.806974 0.832613
vt 0.998008 0.567672
vt 0.893809 0.453976
vt 0.987443 0.802340
vt 0.954428 0.890260
vt 0.939617 0.442561
vt 0.115450 0.494020
vt 0.064689 0.564643
vt 0.050702 0.509051
vt 0.148650 0.537412
vt 0.037129 0.594347
vt 0.090686 0.429180
vt 0.169462 0.580494
vt 0.037991 0.439930
vt 0.131984 0.625828
vt 0.001992 0.475978
vt 0.064239 0.391563
vt 0.087712 0.649345
vt 0.100043 0.711121
vt 0.039312 0.616158
vt 0.052948 0.713642
vt 0.095431 0.777988
vt 0.078013 0.786882
vt 0.140628 0.773498
vt 0.044644 0.755585
vt 0.053893 0.808657
vt 0.147001 0.807275
vt 0.094308 0.844826
vt 0.134643 0.869720
vt 0.057053 0.860174
vt 0.078897 0.889018
vt 0.526342 0.111520
vt 0.505949 0.180509
vt 0.478782 0.088985
vt 0.633929 0.686829
vt 0.621563 0.610002
vt 0.674879 0.596963
vt 0.607749 0.631657
vt 0.624468 0.553468
vt 0.694435 0.652728
vt 0.712748 0.563379
vt 0.641961 0.739707
vt 0.744137 0.604263
vt 0.684923 0.546706
vt 0.709336 0.757175
vt 0.759092 0.563489
vt 0.671296 0.811504
vt 0.740669 0.509621
vt 0.717104 0.789293
vt 0.558436 0.776819
vt 0.500634 0.834393
vt 0.495052 0.723240
vt 0.543402 0.835097
vt 0.552167 0.726012
vt 0.527081 0.894867
vt 0.457647 0.620887
vt 0.541009 0.604244
vt 0.466528 0.579938
vt 0.568271 0.652815
vt 0.420160 0.581588
vt 0.572749 0.554259
vt 0.601786 0.719731
vt 0.427441 0.550206
vt 0.463387 0.499673
vt 0.584951 0.802805
vt 0.562284 0.510284
vt 0.031982 0.212378
vt 0.001992 0.140259
vt 0.040514 0.120563
vt 0.991376 0.181903
vt 0.945805 0.230735
vt 0.947451 0.159762
vt 0.970728 0.222108
vt 0.991504 0.092795
vt 0.996886 0.270154
vt 0.945725 0.073523
vt 0.972688 0.044614
vt 0.954209 0.136139
vt 0.930172 0.118720
vt 0.538367 0.140854
vt 0.525679 0.057322
vt 0.548017 0.089815
vn 0.645160 0.735546 0.206739
vn 0.923048 0.376635 0.078283
vn 0.317794 0.944097 -0.087682
vn -0.982395 0.026385 -0.184942
vn -0.958325 0.056957 -0.279944
vn -0.984324 0.053620 -0.168022
vn -0.288651 -0.904351 -0.314371
vn -0.757431 -0.632470 -0.162111
vn -0.458750 -0.886289 -0.063568
vn 0.763943 0.473630 -0.438253
vn 0.749068 0.521056 -0.409142
vn 0.593621 0.709271 -0.380197
vn 0.905191 -0.372038 0.205467
vn 0.837995 -0.545528 0.012799
vn 0.799804 -0.556799 -0.224250
vn 0.438664 -0.332544 0.834858
vn 0.556120 0.227985 0.799221
vn 0.807392 -0.220918 0.547096
vn -0.393626 -0.267133 0.879601
vn -0.391745 -0.478747 0.785709
vn -0.133665 -0.319610 0.938074
vn -0.597814 0.789278 0.140209
vn -0.153608 0.987151 0.044010
vn -0.269598 0.954411 0.128125
vn 0.446538 -0.892114 -0.068821
vn 0.032551 -0.987580 -0.153707
vn -0.307045 -0.951075 0.034344
vn 0.403567 0.229972 -0.885577
vn -0.154566 -0.145625 -0.977191
vn -0.071539 0.308001 -0.948693
vn 0.984759 0.084877 -0.151811
vn 0.955185 0.040507 -0.293224
vn 0.761595 0.165620 -0.626533
vn -0.004585 0.987741 0.156037
vn -0.201050 0.978865 0.037438
vn 0.927412 -0.249637 0.278547
vn 0.863836 -0.474634 0.168851
vn 0.969320 -0.190610 0.155199
vn -0.465944 -0.600708 0.649651
vn -0.711631 -0.336228 0.616874
vn -0.646191 -0.596432 0.476136
vn -0.546713 0.020126 0.837078
vn -0.951097 -0.088668 0.295893
vn -0.844357 -0.277734 0.458176
vn -0.969274 -0.098478 -0.225413
vn -0.994193 -0.107044 0.011050
vn -0.956912 -0.225184 0.183336
vn -0.799609 -0.302954 0.518502
vn -0.672167 -0.470897 0.571356
vn 0.495498 -0.714657 -0.493708
vn 0.512121 -0.314537 -0.799249
vn 0.834470 -0.380316 -0.398772
vn 0.914856 -0.353415 -0.195286
vn 0.863561 0.170698 -0.474473
vn 0.969754 -0.176524 -0.168574
vn -0.794665 0.556180 -0.243251
vn -0.922077 0.353209 -0.158170
vn -0.816647 0.392785 -0.422856
vn -0.894012 0.442594 0.069667
vn 0.058137 0.988198 -0.141722
vn -0.142406 0.979863 -0.139960
vn -0.112838 0.982429 0.148665
vn 0.125980 0.307713 -0.943102
vn 0.358843 0.194057 -0.913002
vn -0.121457 0.722102 -0.681042
vn 0.112323 0.858154 -0.500955
vn -0.998428 -0.000939 -0.056040
vn 0.401541 -0.845437 -0.352137
vn 0.391384 -0.813484 0.430189
vn -0.069109 -0.674997 0.734577
vn 0.861668 -0.099216 0.497679
vn 0.946962 -0.161492 0.277818
vn 0.757296 -0.223923 0.613484
vn -0.697561 0.160655 0.698283
vn -0.517213 0.547948 0.657452
vn 0.743771 -0.609680 -0.274035
vn 0.757462 0.210245 0.618100
vn -0.433805 -0.213345 0.875384
vn -0.266373 0.523193 0.809515
vn -0.586185 0.477464 0.654534
vn -0.739065 -0.651318 0.171951
vn -0.533459 -0.795539 -0.287297
vn -0.598083 -0.767036 -0.232276
vn -0.091162 -0.966621 -0.239446
vn -0.642584 -0.753384 0.139636
vn 0.974831 0.222319 0.016704
vn 0.668601 0.621826 0.407805
vn 0.893296 0.448132 -0.034635
vn -0.394390 -0.786805 0.474758
vn 0.071028 -0.910644 0.407042
vn -0.129355 0.090833 0.987429
vn 0.341262 0.351561 -0.871748
vn -0.063248 0.172730 -0.982936
vn 0.763058 0.222962 -0.606656
vn 0.935360 -0.110494 -0.335996
vn 0.930140 -0.194323 -0.311573
vn 0.935312 0.111161 0.335908
vn 0.661925 -0.078749 0.745422
vn 0.353863 -0.618227 0.701838
vn -0.788489 -0.599942 -0.135478
vn -0.828699 -0.007913 -0.559638
vn -0.768744 0.005888 -0.639529
vn -0.840226 0.026824 -0.541573
vn 0.373494 -0.289497 0.881303
vn -0.048971 -0.777915 0.626459
vn -0.700370 -0.680222 0.216286
vn -0.634737 -0.758405 0.148089
vn 0.972237 -0.050850 0.228407
vn 0.984556 0.149681 -0.090801
vn 0.672792 0.677371 -0.297523
vn 0.249453 -0.955520 0.157337
vn -0.374082 0.856439 0.355773
vn 0.581779 -0.607838 0.540431
vn -0.448002 -0.714945 -0.536794
vn 0.248231 0.844562 0.474443
vn 0.655678 0.330497 0.678865
vn 0.707342 0.444505 0.549621
vn 0.615222 0.416221 -0.669524
vn -0.865805 0.170561 -0.470416
vn -0.960900 -0.125746 -0.246697
vn 0.930287 -0.126246 0.344423
vn -0.929905 -0.098109 -0.354474
vn -0.783841 -0.610934 -0.111148
vn 0.413944 0.549096 -0.726047
vn 0.931958 -0.342408 -0.119208
vn 0.976317 -0.061023 0.207562
vn -0.948322 0.256462 -0.186851
vn -0.883561 0.245637 -0.398727
vn -0.649744 -0.687039 0.325284
vn -0.765048 -0.639895 -0.072362
vn -0.866979 0.491743 -0.080849
vn -0.960944 0.152804 -0.230731
vn -0.976595 0.105263 -0.187569
vn -0.028725 0.988176 0.150607
vn -0.249753 -0.123864 0.960355
vn 0.898870 -0.246885 -0.362050
vn -0.912210 0.409682 -0.005826
vn -0.889646 -0.053327 0.453527
vn -0.977027 -0.211530 0.025953
vn 0.758026 0.640554 -0.122827
vn 0.861457 0.346651 -0.371112
vn -0.567487 0.822738 0.032553
vn -0.393993 0.364679 0.843670
vn 0.908473 -0.206031 -0.363632
vn 0.927717 -0.187143 -0.322983
vn -0.285337 0.956262 -0.064392
vn -0.647626 -0.334824 0.684451
vn -0.779889 0.548739 0.301097
vn -0.924810 0.024813 -0.379619
s 1
g rock2b_lp_Group5780 group2
usemtl initialShadingGroup
f 21/109/1 18/97/2 112/114/3
f 137/1/4 29/2/5 82/3/6
f 40/137/7 27/138/8 110/139/9
f 32/145/10 77/146/11 81/147/12
f 50/65/13 34/66/14 99/67/15
f 30/96/16 117/91/17 41/84/18
f 105/206/19 114/207/20 26/208/21
f 142/150/22 38/151/23 47/152/24
f 55/178/25 79/179/26 73/180/27
f 4/221/28 37/222/29 64/223/30
f 3/120/31 95/116/32 8/123/33
f 66/157/34 47/152/24 53/154/35
f 90/76/36 71/71/37 13/68/38
f 80/58/39 75/55/40 54/53/41
f 65/40/42 10/18/43 45/33/44
f 82/3/6 51/6/45 137/1/4
f 10/18/43 33/10/46 11/25/47
f 119/238/48 63/239/49 54/240/41
f 20/226/50 37/222/29 118/224/51
f 20/95/50 111/103/52 143/88/53
f 13/68/38 34/66/14 50/65/13
f 72/86/54 32/93/10 136/81/55
f 2/16/56 14/5/57 59/9/58
f 33/10/46 91/17/59 11/25/47
f 61/169/60 96/158/61 23/162/62
f 16/229/63 8/232/33 101/228/64
f 42/168/65 96/158/61 44/171/66
f 137/1/4 106/4/67 29/2/5
f 99/184/15 5/186/68 79/179/26
f 9/203/69 31/204/70 71/205/37
f 18/97/2 28/98/71 46/92/72
f 21/109/1 28/98/71 18/97/2
f 19/104/73 30/96/16 41/84/18
f 134/241/74 109/242/75 65/243/42
f 12/82/76 20/95/50 143/88/53
f 12/181/76 79/179/26 55/178/25
f 107/110/77 19/104/73 28/98/71
f 6/131/78 60/134/79 129/133/80
f 27/138/8 17/142/81 22/140/82
f 94/191/83 62/189/84 97/192/85
f 112/114/3 18/97/2 81/118/12
f 86/125/86 69/126/87 108/124/88
f 84/197/89 9/198/69 24/199/90
f 26/208/21 75/210/40 138/212/91
f 85/225/92 127/227/93 101/228/64
f 39/105/94 104/85/95 68/99/96
f 135/78/97 98/90/98 90/76/36
f 98/90/98 103/89/99 90/76/36
f 17/41/81 27/37/8 87/29/100
f 78/14/101 92/22/102 29/2/5
f 19/104/73 41/84/18 28/98/71
f 46/92/72 28/98/71 41/84/18
f 59/9/58 29/2/5 7/15/103
f 29/2/5 59/9/58 14/5/57
f 30/211/16 105/206/19 26/208/21
f 123/216/104 6/213/78 30/211/16
f 31/194/70 97/192/85 133/193/105
f 54/144/41 126/141/106 102/143/107
f 18/97/2 125/79/108 146/94/109
f 141/148/110 81/147/12 18/149/2
f 33/10/46 14/5/57 91/17/59
f 51/6/45 82/3/6 33/10/46
f 99/67/15 34/66/14 5/69/68
f 133/193/105 97/192/85 122/190/111
f 109/156/75 116/153/112 142/150/22
f 10/18/43 51/6/45 33/10/46
f 122/73/111 34/66/14 36/77/113
f 36/247/113 71/248/37 31/249/70
f 52/185/114 37/188/29 20/183/50
f 7/15/103 29/2/5 92/22/102
f 112/163/3 56/165/115 21/173/1
f 56/121/115 76/113/116 145/115/117
f 39/233/94 85/225/92 25/230/118
f 77/101/11 95/116/32 3/120/31
f 2/16/56 120/23/119 140/31/120
f 54/53/41 63/44/49 126/42/106
f 41/84/18 128/72/121 125/79/108
f 135/78/97 90/76/36 13/68/38
f 8/232/33 16/229/63 42/235/65
f 113/8/122 78/14/101 29/2/5
f 43/48/123 17/41/81 87/29/100
f 22/51/82 17/41/81 43/48/123
f 8/232/33 42/235/65 139/237/124
f 8/123/33 86/125/86 3/120/31
f 11/25/47 45/33/44 10/18/43
f 114/49/20 119/38/48 54/53/41
f 93/70/125 50/65/13 99/67/15
f 136/81/55 146/94/109 115/87/126
f 47/152/24 23/162/62 96/158/61
f 15/12/127 147/7/128 137/1/4
f 102/59/107 48/64/129 54/53/41
f 48/64/129 102/59/107 67/54/130
f 16/229/63 147/234/128 42/235/65
f 15/12/127 42/20/65 147/7/128
f 128/72/121 50/65/13 125/79/108
f 125/79/108 115/87/126 146/94/109
f 10/18/43 35/26/131 124/19/132
f 35/26/131 100/11/133 124/19/132
f 87/29/100 92/22/102 52/36/114
f 87/29/100 73/52/27 43/48/123
f 112/163/3 53/154/35 88/161/134
f 53/154/35 47/152/24 38/151/23
f 84/63/89 80/58/39 54/53/41
f 84/63/89 54/53/41 48/64/129
f 55/178/25 73/180/27 20/183/50
f 55/102/25 20/95/50 12/82/76
f 60/174/79 56/165/115 129/170/80
f 53/154/35 116/153/112 88/161/134
f 57/215/135 103/219/99 98/217/98
f 84/197/89 24/199/90 80/201/39
f 1/74/136 104/85/95 72/86/54
f 50/65/13 93/70/125 1/74/136
f 120/23/119 27/37/8 140/31/120
f 87/29/100 27/37/8 120/23/119
f 76/177/116 56/165/115 60/174/79
f 60/218/79 6/213/78 123/216/104
f 96/158/61 61/169/60 44/171/66
f 8/123/33 139/127/124 86/125/86
f 79/179/26 5/186/68 62/189/84
f 5/69/68 34/66/14 122/73/111
f 14/5/57 149/24/137 91/17/59
f 130/32/138 149/24/137 70/30/139
f 64/223/30 127/227/93 85/225/92
f 78/14/101 113/8/122 127/21/93
f 6/213/78 105/206/19 30/211/16
f 105/130/19 6/131/78 134/132/74
f 47/152/24 66/157/34 23/162/62
f 23/162/62 69/166/87 61/169/60
f 67/54/130 22/51/82 43/48/123
f 94/191/83 79/179/26 62/189/84
f 118/107/51 111/103/52 20/95/50
f 64/223/30 85/225/92 4/221/28
f 66/157/34 69/166/87 23/162/62
f 121/122/140 112/114/3 81/118/12
f 2/16/56 140/31/120 70/30/139
f 126/141/106 40/137/7 110/139/9
f 13/68/38 71/71/37 34/66/14
f 36/77/113 34/66/14 71/71/37
f 39/105/94 25/111/118 131/100/141
f 104/85/95 39/105/94 131/100/141
f 87/187/100 52/185/114 73/180/27
f 73/180/27 52/185/114 20/183/50
f 96/158/61 74/155/142 47/152/24
f 47/152/24 74/155/142 142/150/22
f 54/53/41 75/55/40 114/49/20
f 114/207/20 75/210/40 26/208/21
f 76/113/116 19/104/73 145/115/117
f 123/108/104 30/96/16 19/104/73
f 77/101/11 131/100/141 25/111/118
f 77/101/11 32/93/10 72/86/54
f 92/22/102 78/14/101 64/28/30
f 78/14/101 127/21/93 64/28/30
f 79/179/26 43/182/123 73/180/27
f 43/48/123 79/60/26 94/57/83
f 80/201/39 24/199/90 57/202/135
f 80/58/39 57/62/135 75/55/40
f 77/101/11 3/120/31 81/118/12
f 108/124/88 121/122/140 81/118/12
f 82/3/6 29/2/5 14/5/57
f 82/3/6 14/5/57 33/10/46
f 116/246/112 109/242/75 83/244/143
f 129/170/80 56/165/115 116/153/112
f 9/198/69 84/197/89 31/194/70
f 31/194/70 84/197/89 48/196/129
f 4/112/28 85/117/92 111/103/52
f 39/233/94 111/236/52 85/225/92
f 86/175/86 44/171/66 61/169/60
f 61/169/60 69/166/87 86/175/86
f 7/15/103 92/22/102 87/29/100
f 120/23/119 7/15/103 87/29/100
f 88/161/134 56/165/115 112/163/3
f 56/165/115 88/161/134 116/153/112
f 143/88/53 68/99/96 104/85/95
f 58/75/144 93/70/125 99/67/15
f 90/76/36 9/83/69 71/71/37
f 90/76/36 103/89/99 9/83/69
f 63/44/49 119/38/48 130/32/138
f 126/42/106 63/44/49 130/32/138
f 92/22/102 64/28/30 37/35/29
f 52/36/114 92/22/102 37/35/29
f 58/75/144 89/80/145 93/70/125
f 93/70/125 89/80/145 1/74/136
f 67/54/130 94/57/83 97/61/85
f 67/54/130 43/48/123 94/57/83
f 77/101/11 25/111/118 95/116/32
f 25/230/118 85/225/92 101/228/64
f 132/164/146 42/168/65 15/172/127
f 15/12/127 74/27/142 132/34/146
f 67/54/130 97/61/85 48/64/129
f 31/194/70 48/196/129 97/192/85
f 117/214/17 30/211/16 26/208/21
f 138/212/91 117/214/17 26/208/21
f 12/181/76 99/184/15 79/179/26
f 99/67/15 12/82/76 58/75/144
f 74/27/142 15/12/127 100/11/133
f 74/27/142 100/11/133 35/26/131
f 25/111/118 101/119/64 95/116/32
f 101/119/64 8/123/33 95/116/32
f 126/141/106 110/139/9 102/143/107
f 110/56/9 67/54/130 102/59/107
f 103/200/99 24/199/90 9/198/69
f 57/202/135 24/199/90 103/200/99
f 89/80/145 143/88/53 104/85/95
f 89/80/145 104/85/95 1/74/136
f 105/245/19 134/241/74 65/243/42
f 105/50/19 65/40/42 144/46/147
f 106/4/67 113/8/122 29/2/5
f 137/1/4 147/7/128 106/4/67
f 21/109/1 107/110/77 28/98/71
f 56/121/115 145/115/117 21/109/1
f 81/118/12 3/120/31 108/124/88
f 86/125/86 108/124/88 3/120/31
f 65/40/42 109/47/75 10/18/43
f 109/156/75 142/150/22 148/160/148
f 27/138/8 22/140/82 110/139/9
f 110/56/9 22/51/82 67/54/130
f 143/88/53 111/103/52 68/99/96
f 68/99/96 111/103/52 39/105/94
f 121/167/140 66/157/34 112/163/3
f 112/163/3 66/157/34 53/154/35
f 49/13/149 127/21/93 113/8/122
f 106/4/67 49/13/149 113/8/122
f 144/46/147 65/40/42 45/33/44
f 144/46/147 45/33/44 119/38/48
f 50/65/13 136/81/55 115/87/126
f 125/251/108 50/252/13 115/253/126
f 142/150/22 116/153/112 38/151/23
f 53/154/35 38/151/23 116/153/112
f 117/214/17 138/212/91 98/217/98
f 117/91/17 98/90/98 135/78/97
f 37/222/29 4/221/28 118/224/51
f 118/107/51 4/112/28 111/103/52
f 45/33/44 11/25/47 119/38/48
f 119/38/48 11/25/47 130/32/138
f 120/23/119 2/16/56 59/9/58
f 120/23/119 59/9/58 7/15/103
f 121/122/140 108/124/88 69/126/87
f 69/126/87 66/128/34 121/122/140
f 62/189/84 5/186/68 122/190/111
f 97/192/85 62/189/84 122/190/111
f 123/108/104 19/104/73 76/113/116
f 76/220/116 60/218/79 123/216/104
f 10/18/43 124/19/132 51/6/45
f 100/11/133 51/6/45 124/19/132
f 18/97/2 46/92/72 125/79/108
f 41/84/18 125/79/108 46/92/72
f 140/31/120 126/42/106 70/30/139
f 130/32/138 70/30/139 126/42/106
f 101/228/64 127/227/93 16/229/63
f 127/227/93 49/231/149 16/229/63
f 128/72/121 135/78/97 13/68/38
f 128/72/121 13/68/38 50/65/13
f 129/133/80 116/136/112 83/135/143
f 6/131/78 129/133/80 134/132/74
f 130/32/138 11/25/47 91/17/59
f 149/24/137 130/32/138 91/17/59
f 131/100/141 77/101/11 72/86/54
f 131/100/141 72/86/54 104/85/95
f 132/164/146 96/158/61 42/168/65
f 96/158/61 132/164/146 74/155/142
f 122/190/111 36/195/113 133/193/105
f 31/249/70 133/250/105 36/247/113
f 134/241/74 83/244/143 109/242/75
f 134/132/74 129/133/80 83/135/143
f 41/84/18 135/78/97 128/72/121
f 41/84/18 117/91/17 135/78/97
f 1/74/136 72/86/54 136/81/55
f 50/65/13 1/74/136 136/81/55
f 100/11/133 15/12/127 137/1/4
f 51/6/45 100/11/133 137/1/4
f 57/215/135 138/212/91 75/210/40
f 57/215/135 98/217/98 138/212/91
f 44/171/66 139/176/124 42/168/65
f 139/127/124 44/129/66 86/125/86
f 27/37/8 40/43/7 140/31/120
f 126/42/106 140/31/120 40/43/7
f 141/148/110 32/145/10 81/147/12
f 146/94/109 141/106/110 18/97/2
f 10/18/43 142/39/22 35/26/131
f 74/155/142 35/159/131 142/150/22
f 12/82/76 143/88/53 58/75/144
f 58/75/144 143/88/53 89/80/145
f 114/207/20 105/206/19 144/209/147
f 114/49/20 144/46/147 119/38/48
f 19/104/73 107/110/77 145/115/117
f 145/115/117 107/110/77 21/109/1
f 141/106/110 146/94/109 32/93/10
f 32/93/10 146/94/109 136/81/55
f 49/231/149 147/234/128 16/229/63
f 106/4/67 147/7/128 49/13/149
f 142/39/22 10/18/43 148/45/148
f 109/47/75 148/45/148 10/18/43
f 14/5/57 2/16/56 149/24/137
f 2/16/56 70/30/139 149/24/137
